<svg xmlns="http://www.w3.org/2000/svg" width="32" height="32" viewBox="0 0 256 256">
  <path fill="#10b981" d="M212.745 143.991V88.745C212.745 41.942 174.804 4 128 4S43.255 41.942 43.255 88.745v55.246c-10.58 6.514-17.636 18.199-17.636 31.535 0 20.441 16.57 37.011 37.011 37.011h130.74c20.441 0 37.011-16.57 37.011-37.011.001-13.336-7.055-25.021-17.636-31.535z"/>
  <path fill="#059669" opacity="0.3" d="M212.745 143.991V88.745C212.745 41.942 174.804 4 128 4c-1.68 0-3.344.062-5 .159 44.475 2.59 79.746 39.463 79.746 84.587v55.246c10.58 6.514 17.636 18.199 17.636 31.535 0 20.441-16.57 37.011-37.011 37.011h10c20.441 0 37.011-16.57 37.011-37.011 0-13.337-7.056-25.022-17.637-31.536z"/>
  <path fill="#059669" d="M135.892 227.072v-14.534h-15.784v14.534l-10.279 11.869A7.894 7.894 0 0 0 115.791 252a7.87 7.87 0 0 0 5.969-2.726l6.24-7.204 6.24 7.204a7.892 7.892 0 1 0 11.931-10.334z"/>
  <path fill="#0f1117" d="M72 138.896a10 10 0 0 1-10-10v-12a10 10 0 0 1 20 0v12a10 10 0 0 1-10 10zM184 138.896a10 10 0 0 1-10-10v-12a10 10 0 0 1 20 0v12a10 10 0 0 1-10 10z"/>
</svg>
